<svg xmlns="http://www.w3.org/2000/svg" viewBox="0 0 512 512">
  <path d="M496 0H400c-8.8 0-16 7.2-16 16v16h112V16c0-8.8-7.2-16-16-16zM464 96c0-17.7-14.3-32-32-32H384v48c0 8.8 7.2 16 16 16h32c8.8 0 16-7.2 16-16V96zm-64 80c-17.7 0-32 14.3-32 32v16c0 8.8 7.2 16 16 16h32c8.8 0 16-7.2 16-16v-16c0-17.7-14.3-32-32-32zm96 0c-17.7 0-32 14.3-32 32v16c0 8.8 7.2 16 16 16h32c8.8 0 16-7.2 16-16v-16c0-17.7-14.3-32-32-32zM448 288H64c-35.3 0-64 28.7-64 64v64c0 35.3 28.7 64 64 64h384c35.3 0 64-28.7 64-64v-64c0-35.3-28.7-64-64-64zM64 352h384c17.7 0 32 14.3 32 32v64c0 17.7-14.3 32-32 32H64c-17.7 0-32-14.3-32-32v-64c0-17.7 14.3-32 32-32z"/>
</svg>